# xmcd
#
# Track frame offsets:
# 150
# 11546
# 31366
# 40101
# 51646
# 62042
# 72294
# 84805
# 94957
# 104098
# 112131
# 128982
# 143245
# 155933
# 167956
# 176280
# 187400
# 199895
# 213669
# 228186
#
# Disc length: 3385 seconds
#
#
# Revision: 1
# Processed by: cddbd v1.5.2PL0 Copyright (c) Steve Scherf et al.
# Submitted via: FreeRIP 2.944 
#
DISCID=320d3714
DTITLE=CESAR MENOTTI E FABIANO - CESAR MENOTTI E FABIANO MENSANGEM PRA ELA
DYEAR=2007
DGENRE=SERTANEJA
TTITLE0=Mensagem pra ela
TTITLE1=Deixa eu te amar
TTITLE2=Feitiçeira
TTITLE3=Tocando em frente
TTITLE4=To por ai
TTITLE5=Passou da conta
TTITLE6=Vida Cigana
TTITLE7=É o amor
TTITLE8=Vida vazia
TTITLE9=Sessenta dias apaixonado
TTITLE10=Dois corações e uma história
TTITLE11=Caso marcado
TTITLE12=Como um anjo
TTITLE13=Fica comigo
TTITLE14=Coração esta em pedaços
TTITLE15=Aqui não
TTITLE16=Bão também
TTITLE17=Sem medo de ser feliz
TTITLE18=Leilão
TTITLE19=Lugar melhor que BH magia e mistério
EXTD=
EXTT0=
EXTT1=
EXTT2=
EXTT3=
EXTT4=
EXTT5=
EXTT6=
EXTT7=
EXTT8=
EXTT9=
EXTT10=
EXTT11=
EXTT12=
EXTT13=
EXTT14=
EXTT15=
EXTT16=
EXTT17=
EXTT18=
EXTT19=
PLAYORDER=
